<?xml version="1.0" encoding="UTF-8" ?>
<!DOCTYPE svg PUBLIC "-//W3C//DTD SVG 1.1//EN" "http://www.w3.org/Graphics/SVG/1.1/DTD/svg11.dtd">
<svg width="124pt" height="113pt" viewBox="0 0 124 113" version="1.1" xmlns="http://www.w3.org/2000/svg">
<g id="#101012ff">
</g>
<g id="#c9b590ff">
<path fill="#c9b590" opacity="1.00" d=" M 24.00 21.56 C 37.01 21.34 50.02 21.53 63.04 21.45 C 70.01 21.37 77.13 23.07 82.86 27.17 C 90.53 32.22 95.52 40.84 96.68 49.89 C 99.01 65.69 87.70 82.06 72.05 85.37 C 76.98 88.60 81.31 92.77 86.61 95.40 C 93.46 98.42 101.67 95.18 105.45 88.93 C 106.85 89.78 108.25 90.63 109.65 91.47 C 105.88 97.43 99.16 101.63 91.97 101.23 C 86.51 101.45 81.61 98.67 77.49 95.35 C 69.56 89.42 61.41 83.75 53.53 77.76 C 53.44 77.36 53.26 76.57 53.17 76.18 C 52.23 84.52 52.96 93.00 52.77 101.39 C 45.54 101.20 38.30 101.54 31.08 101.17 C 24.13 100.88 17.86 96.18 14.90 90.00 C 11.90 84.08 12.46 76.73 15.78 71.06 C 19.21 65.49 25.42 61.73 32.00 61.57 C 31.99 49.76 32.02 37.94 31.99 26.12 C 29.31 26.19 26.62 26.23 23.94 26.28 C 23.97 24.70 23.99 23.13 24.00 21.56 M 37.03 26.19 C 36.96 38.06 37.02 49.93 37.00 61.80 C 41.12 62.75 44.56 65.23 47.97 67.59 C 47.81 53.79 48.00 39.98 47.88 26.17 C 44.26 26.21 40.65 26.23 37.03 26.19 M 52.78 26.11 C 52.79 41.05 52.68 55.99 52.81 70.93 C 56.34 74.26 60.62 76.71 64.38 79.78 C 67.20 82.48 71.39 80.59 74.54 79.51 C 86.90 75.01 94.56 60.72 91.42 47.94 C 89.33 38.21 81.54 30.04 71.96 27.38 C 65.72 25.55 59.17 26.56 52.78 26.11 M 17.90 81.07 C 17.30 89.03 24.32 95.93 32.01 96.63 C 32.03 86.51 31.91 76.39 32.08 66.28 C 24.57 66.81 17.72 73.37 17.90 81.07 M 37.02 66.78 C 36.98 76.68 37.02 86.59 37.00 96.49 C 40.66 96.58 44.32 96.56 47.99 96.49 C 47.91 88.97 47.88 81.45 47.97 73.92 C 44.56 71.20 41.09 68.45 37.02 66.78 Z" />
</g>
</svg>
